<mxfile host="app.diagrams.net" modified="2022-08-25T07:14:39.066Z" agent="5.0 (Macintosh; Intel Mac OS X 10_15_7) AppleWebKit/537.36 (KHTML, like Gecko) Chrome/104.0.0.0 Safari/537.36" etag="mpEnsPok5GFqQBF8Gcli" version="20.2.6" type="github">
  <diagram id="2YnmBvnwqgAyrmYYEAlh" name="第 1 页">
    <mxGraphModel dx="1426" dy="1849" grid="1" gridSize="10" guides="1" tooltips="1" connect="1" arrows="1" fold="1" page="1" pageScale="1" pageWidth="827" pageHeight="1169" math="0" shadow="0">
      <root>
        <mxCell id="0" />
        <mxCell id="1" parent="0" />
        <mxCell id="NgeabX5yVp1asUE-ojEV-1" style="edgeStyle=orthogonalEdgeStyle;rounded=0;orthogonalLoop=1;jettySize=auto;html=1;entryX=0.5;entryY=0;entryDx=0;entryDy=0;fontSize=24;strokeColor=#3399FF;" edge="1" parent="1" source="NgeabX5yVp1asUE-ojEV-5" target="NgeabX5yVp1asUE-ojEV-6">
          <mxGeometry relative="1" as="geometry">
            <Array as="points">
              <mxPoint x="470" y="-570" />
              <mxPoint x="180" y="-570" />
              <mxPoint x="180" y="-530" />
            </Array>
          </mxGeometry>
        </mxCell>
        <mxCell id="NgeabX5yVp1asUE-ojEV-2" style="edgeStyle=orthogonalEdgeStyle;rounded=0;orthogonalLoop=1;jettySize=auto;html=1;entryX=0.5;entryY=0;entryDx=0;entryDy=0;fontSize=24;strokeColor=#3399FF;" edge="1" parent="1" source="NgeabX5yVp1asUE-ojEV-5" target="NgeabX5yVp1asUE-ojEV-7">
          <mxGeometry relative="1" as="geometry">
            <Array as="points">
              <mxPoint x="470" y="-570" />
              <mxPoint x="410" y="-570" />
            </Array>
          </mxGeometry>
        </mxCell>
        <mxCell id="NgeabX5yVp1asUE-ojEV-3" style="edgeStyle=orthogonalEdgeStyle;rounded=0;orthogonalLoop=1;jettySize=auto;html=1;entryX=0.5;entryY=0;entryDx=0;entryDy=0;fontSize=24;strokeColor=#3399FF;" edge="1" parent="1" source="NgeabX5yVp1asUE-ojEV-5" target="NgeabX5yVp1asUE-ojEV-8">
          <mxGeometry relative="1" as="geometry">
            <Array as="points">
              <mxPoint x="470" y="-570" />
              <mxPoint x="645" y="-570" />
            </Array>
          </mxGeometry>
        </mxCell>
        <mxCell id="NgeabX5yVp1asUE-ojEV-4" style="edgeStyle=orthogonalEdgeStyle;rounded=0;orthogonalLoop=1;jettySize=auto;html=1;entryX=0.5;entryY=0;entryDx=0;entryDy=0;fontSize=24;strokeColor=#3399FF;" edge="1" parent="1" source="NgeabX5yVp1asUE-ojEV-5" target="NgeabX5yVp1asUE-ojEV-9">
          <mxGeometry relative="1" as="geometry">
            <Array as="points">
              <mxPoint x="470" y="-570" />
              <mxPoint x="840" y="-570" />
            </Array>
          </mxGeometry>
        </mxCell>
        <mxCell id="NgeabX5yVp1asUE-ojEV-5" value="产品管理" style="rounded=0;whiteSpace=wrap;html=1;fontSize=24;strokeColor=#97D077;" vertex="1" parent="1">
          <mxGeometry x="410" y="-660" width="120" height="50" as="geometry" />
        </mxCell>
        <mxCell id="NgeabX5yVp1asUE-ojEV-22" style="edgeStyle=orthogonalEdgeStyle;rounded=0;orthogonalLoop=1;jettySize=auto;html=1;entryX=0.5;entryY=0;entryDx=0;entryDy=0;fontSize=24;strokeColor=#3399FF;" edge="1" parent="1" source="NgeabX5yVp1asUE-ojEV-6" target="NgeabX5yVp1asUE-ojEV-10">
          <mxGeometry relative="1" as="geometry" />
        </mxCell>
        <mxCell id="NgeabX5yVp1asUE-ojEV-23" style="edgeStyle=orthogonalEdgeStyle;rounded=0;orthogonalLoop=1;jettySize=auto;html=1;entryX=0.5;entryY=0;entryDx=0;entryDy=0;fontSize=24;strokeColor=#3399FF;" edge="1" parent="1" source="NgeabX5yVp1asUE-ojEV-6" target="NgeabX5yVp1asUE-ojEV-12">
          <mxGeometry relative="1" as="geometry" />
        </mxCell>
        <mxCell id="NgeabX5yVp1asUE-ojEV-24" style="edgeStyle=orthogonalEdgeStyle;rounded=0;orthogonalLoop=1;jettySize=auto;html=1;entryX=0.5;entryY=0;entryDx=0;entryDy=0;fontSize=24;strokeColor=#3399FF;" edge="1" parent="1" source="NgeabX5yVp1asUE-ojEV-6" target="NgeabX5yVp1asUE-ojEV-13">
          <mxGeometry relative="1" as="geometry" />
        </mxCell>
        <mxCell id="NgeabX5yVp1asUE-ojEV-25" style="edgeStyle=orthogonalEdgeStyle;rounded=0;orthogonalLoop=1;jettySize=auto;html=1;fontSize=24;strokeColor=#3399FF;" edge="1" parent="1" source="NgeabX5yVp1asUE-ojEV-6" target="NgeabX5yVp1asUE-ojEV-14">
          <mxGeometry relative="1" as="geometry" />
        </mxCell>
        <mxCell id="NgeabX5yVp1asUE-ojEV-6" value="产品列表" style="rounded=0;whiteSpace=wrap;html=1;fontSize=24;strokeColor=#97D077;" vertex="1" parent="1">
          <mxGeometry x="90" y="-530" width="170" height="50" as="geometry" />
        </mxCell>
        <mxCell id="NgeabX5yVp1asUE-ojEV-26" style="edgeStyle=orthogonalEdgeStyle;rounded=0;orthogonalLoop=1;jettySize=auto;html=1;entryX=0.5;entryY=0;entryDx=0;entryDy=0;fontSize=24;strokeColor=#3399FF;" edge="1" parent="1" source="NgeabX5yVp1asUE-ojEV-7" target="NgeabX5yVp1asUE-ojEV-15">
          <mxGeometry relative="1" as="geometry" />
        </mxCell>
        <mxCell id="NgeabX5yVp1asUE-ojEV-27" style="edgeStyle=orthogonalEdgeStyle;rounded=0;orthogonalLoop=1;jettySize=auto;html=1;entryX=0.5;entryY=0;entryDx=0;entryDy=0;fontSize=24;strokeColor=#3399FF;" edge="1" parent="1" source="NgeabX5yVp1asUE-ojEV-7" target="NgeabX5yVp1asUE-ojEV-16">
          <mxGeometry relative="1" as="geometry" />
        </mxCell>
        <mxCell id="NgeabX5yVp1asUE-ojEV-28" style="edgeStyle=orthogonalEdgeStyle;rounded=0;orthogonalLoop=1;jettySize=auto;html=1;entryX=0.5;entryY=0;entryDx=0;entryDy=0;fontSize=24;strokeColor=#3399FF;" edge="1" parent="1" source="NgeabX5yVp1asUE-ojEV-7" target="NgeabX5yVp1asUE-ojEV-17">
          <mxGeometry relative="1" as="geometry" />
        </mxCell>
        <mxCell id="NgeabX5yVp1asUE-ojEV-7" value="产品分类" style="rounded=0;whiteSpace=wrap;html=1;fontSize=24;strokeColor=#97D077;" vertex="1" parent="1">
          <mxGeometry x="330" y="-530" width="160" height="50" as="geometry" />
        </mxCell>
        <mxCell id="NgeabX5yVp1asUE-ojEV-29" style="edgeStyle=orthogonalEdgeStyle;rounded=0;orthogonalLoop=1;jettySize=auto;html=1;entryX=0.5;entryY=0;entryDx=0;entryDy=0;fontSize=24;strokeColor=#3399FF;" edge="1" parent="1" source="NgeabX5yVp1asUE-ojEV-8" target="NgeabX5yVp1asUE-ojEV-18">
          <mxGeometry relative="1" as="geometry" />
        </mxCell>
        <mxCell id="NgeabX5yVp1asUE-ojEV-30" style="edgeStyle=orthogonalEdgeStyle;rounded=0;orthogonalLoop=1;jettySize=auto;html=1;entryX=0.5;entryY=0;entryDx=0;entryDy=0;fontSize=24;strokeColor=#3399FF;" edge="1" parent="1" source="NgeabX5yVp1asUE-ojEV-8" target="NgeabX5yVp1asUE-ojEV-19">
          <mxGeometry relative="1" as="geometry" />
        </mxCell>
        <mxCell id="NgeabX5yVp1asUE-ojEV-8" value="订单列表" style="rounded=0;whiteSpace=wrap;html=1;fontSize=24;strokeColor=#97D077;" vertex="1" parent="1">
          <mxGeometry x="560" y="-530" width="170" height="50" as="geometry" />
        </mxCell>
        <mxCell id="NgeabX5yVp1asUE-ojEV-31" style="edgeStyle=orthogonalEdgeStyle;rounded=0;orthogonalLoop=1;jettySize=auto;html=1;entryX=0.5;entryY=0;entryDx=0;entryDy=0;fontSize=24;strokeColor=#3399FF;" edge="1" parent="1" source="NgeabX5yVp1asUE-ojEV-9" target="NgeabX5yVp1asUE-ojEV-20">
          <mxGeometry relative="1" as="geometry" />
        </mxCell>
        <mxCell id="NgeabX5yVp1asUE-ojEV-33" style="edgeStyle=orthogonalEdgeStyle;rounded=0;orthogonalLoop=1;jettySize=auto;html=1;entryX=0.5;entryY=0;entryDx=0;entryDy=0;fontSize=24;strokeColor=#3399FF;" edge="1" parent="1" source="NgeabX5yVp1asUE-ojEV-9" target="NgeabX5yVp1asUE-ojEV-21">
          <mxGeometry relative="1" as="geometry" />
        </mxCell>
        <mxCell id="NgeabX5yVp1asUE-ojEV-9" value="产品结算" style="rounded=0;whiteSpace=wrap;html=1;fontSize=24;strokeColor=#97D077;" vertex="1" parent="1">
          <mxGeometry x="760" y="-530" width="160" height="50" as="geometry" />
        </mxCell>
        <mxCell id="NgeabX5yVp1asUE-ojEV-10" value="&lt;font style=&quot;font-size: 24px;&quot;&gt;查看列表&lt;/font&gt;" style="rounded=0;whiteSpace=wrap;html=1;strokeColor=#97D077;" vertex="1" parent="1">
          <mxGeometry x="80" y="-430" width="40" height="150" as="geometry" />
        </mxCell>
        <mxCell id="NgeabX5yVp1asUE-ojEV-12" value="&lt;span style=&quot;font-size: 24px;&quot;&gt;新增产品&lt;/span&gt;" style="rounded=0;whiteSpace=wrap;html=1;strokeColor=#97D077;" vertex="1" parent="1">
          <mxGeometry x="130" y="-430" width="40" height="150" as="geometry" />
        </mxCell>
        <mxCell id="NgeabX5yVp1asUE-ojEV-13" value="&lt;span style=&quot;font-size: 24px;&quot;&gt;修改产品&lt;/span&gt;" style="rounded=0;whiteSpace=wrap;html=1;strokeColor=#97D077;" vertex="1" parent="1">
          <mxGeometry x="180" y="-430" width="40" height="150" as="geometry" />
        </mxCell>
        <mxCell id="NgeabX5yVp1asUE-ojEV-14" value="&lt;span style=&quot;font-size: 24px;&quot;&gt;查看链接&lt;/span&gt;" style="rounded=0;whiteSpace=wrap;html=1;strokeColor=#97D077;" vertex="1" parent="1">
          <mxGeometry x="230" y="-430" width="40" height="150" as="geometry" />
        </mxCell>
        <mxCell id="NgeabX5yVp1asUE-ojEV-15" value="&lt;span style=&quot;font-size: 24px;&quot;&gt;查看列表&lt;/span&gt;" style="rounded=0;whiteSpace=wrap;html=1;strokeColor=#97D077;" vertex="1" parent="1">
          <mxGeometry x="330" y="-430" width="40" height="150" as="geometry" />
        </mxCell>
        <mxCell id="NgeabX5yVp1asUE-ojEV-16" value="&lt;span style=&quot;font-size: 24px;&quot;&gt;新增分类&lt;/span&gt;" style="rounded=0;whiteSpace=wrap;html=1;strokeColor=#97D077;" vertex="1" parent="1">
          <mxGeometry x="390" y="-430" width="40" height="150" as="geometry" />
        </mxCell>
        <mxCell id="NgeabX5yVp1asUE-ojEV-17" value="&lt;span style=&quot;font-size: 24px;&quot;&gt;删除分类&lt;/span&gt;" style="rounded=0;whiteSpace=wrap;html=1;strokeColor=#97D077;" vertex="1" parent="1">
          <mxGeometry x="450" y="-430" width="40" height="150" as="geometry" />
        </mxCell>
        <mxCell id="NgeabX5yVp1asUE-ojEV-18" value="&lt;span style=&quot;font-size: 24px;&quot;&gt;条件查询&lt;/span&gt;" style="rounded=0;whiteSpace=wrap;html=1;strokeColor=#97D077;" vertex="1" parent="1">
          <mxGeometry x="580" y="-430" width="40" height="150" as="geometry" />
        </mxCell>
        <mxCell id="NgeabX5yVp1asUE-ojEV-19" value="&lt;span style=&quot;font-size: 24px;&quot;&gt;导出&lt;br&gt;订单&lt;br&gt;&lt;/span&gt;" style="rounded=0;whiteSpace=wrap;html=1;strokeColor=#97D077;" vertex="1" parent="1">
          <mxGeometry x="680" y="-430" width="40" height="150" as="geometry" />
        </mxCell>
        <mxCell id="NgeabX5yVp1asUE-ojEV-20" value="&lt;span style=&quot;font-size: 24px;&quot;&gt;条件查询&lt;/span&gt;" style="rounded=0;whiteSpace=wrap;html=1;strokeColor=#97D077;" vertex="1" parent="1">
          <mxGeometry x="790" y="-430" width="40" height="150" as="geometry" />
        </mxCell>
        <mxCell id="NgeabX5yVp1asUE-ojEV-21" value="&lt;span style=&quot;font-size: 24px;&quot;&gt;订单详情&lt;/span&gt;" style="rounded=0;whiteSpace=wrap;html=1;strokeColor=#97D077;" vertex="1" parent="1">
          <mxGeometry x="860" y="-430" width="40" height="150" as="geometry" />
        </mxCell>
      </root>
    </mxGraphModel>
  </diagram>
</mxfile>
